<?xml version="1.0" standalone="no"?>
<!DOCTYPE svg PUBLIC "-//W3C//DTD SVG 20010904//EN"
 "http://www.w3.org/TR/2001/REC-SVG-20010904/DTD/svg10.dtd">
<svg version="1.0" xmlns="http://www.w3.org/2000/svg"
 width="537.000000pt" height="73.000000pt" viewBox="0 0 537.000000 73.000000"
 preserveAspectRatio="xMidYMid meet">
<metadata>
Created by potrace 1.16, written by Peter Selinger 2001-2019
</metadata>
<g transform="translate(0.000000,73.000000) scale(0.100000,-0.100000)"
fill="#000000" stroke="none">
<path d="M143 692 c-40 -2 -73 -6 -73 -10 0 -4 37 -44 83 -90 l82 -82 138 0
137 0 0 -124 c0 -69 4 -127 9 -131 6 -3 8 4 6 15 -2 11 0 20 4 20 4 0 14 18
21 40 7 22 16 40 20 40 3 0 15 24 25 53 10 28 33 81 51 116 30 61 33 63 37 35
2 -16 5 1 6 39 1 48 -3 67 -11 67 -10 0 -10 2 -2 8 12 7 -386 10 -533 4z"/>
<path d="M50 361 l0 -311 238 2 c130 1 213 3 185 5 -29 2 -53 8 -53 14 0 5 4
9 9 9 5 0 11 8 15 17 3 10 10 25 15 33 5 8 14 27 22 43 7 15 18 27 24 27 13 0
141 -131 138 -141 -1 -3 5 -6 13 -6 8 0 14 4 14 9 0 4 -5 8 -12 8 -6 0 -9 2
-6 5 3 3 -27 38 -66 78 l-72 72 68 -65 c38 -36 71 -64 73 -62 11 5 26 1 21 -6
-2 -4 -1 -14 3 -21 5 -7 8 25 8 71 0 61 -1 68 -4 26 -2 -32 -9 -58 -14 -58 -6
0 -7 5 -3 12 4 7 3 8 -5 4 -7 -5 -35 15 -71 50 l-59 57 -150 -2 -151 -2 0 138
0 139 -72 70 c-121 117 -108 142 -108 -215z"/>
<path d="M1763 578 c-4 -7 -43 -98 -85 -203 -66 -164 -75 -192 -62 -205 9 -9
17 -11 24 -4 6 6 39 82 74 169 52 130 65 155 73 139 6 -10 34 -80 63 -154 29
-74 59 -141 65 -149 16 -16 35 -6 35 17 -1 28 -154 395 -167 399 -6 2 -15 -2
-20 -9z"/>
<path d="M1113 569 c-48 -14 -83 -66 -83 -123 0 -62 24 -95 89 -126 28 -13 51
-27 51 -32 0 -14 -50 -9 -87 8 -24 12 -37 14 -45 6 -17 -17 -1 -42 34 -56 36
-15 135 -30 125 -19 -4 3 0 14 9 24 9 10 14 30 12 46 -2 23 -14 34 -66 61 -67
36 -87 64 -76 108 13 53 78 77 140 54 21 -8 31 -8 42 4 19 19 9 33 -36 46 -43
12 -65 12 -109 -1z"/>
<path d="M2085 561 c-153 -71 -156 -304 -4 -381 66 -34 199 -24 199 15 0 22
-12 24 -62 14 -64 -14 -118 2 -157 46 -82 94 -50 227 65 271 39 15 53 16 91 6
47 -13 63 -10 63 14 0 36 -128 46 -195 15z"/>
<path d="M2753 573 c-34 -7 -81 -59 -89 -98 -13 -71 21 -127 98 -159 20 -9 39
-20 43 -26 10 -16 -53 -12 -92 7 -28 13 -36 14 -43 3 -13 -21 -1 -37 41 -54
79 -32 139 -12 139 46 0 27 -22 52 -58 63 -45 13 -82 54 -82 91 0 67 72 104
145 75 11 -5 26 -6 33 -4 17 7 15 40 -3 47 -23 8 -108 15 -132 9z"/>
<path d="M2998 574 c-5 -4 -8 -99 -8 -211 0 -196 1 -203 20 -203 19 0 20 7 20
185 l0 185 74 0 c66 0 78 -3 105 -26 35 -29 40 -67 16 -113 -12 -25 -12 -31 0
-47 21 -28 18 -77 -6 -108 -18 -23 -28 -26 -77 -26 -64 0 -88 -10 -79 -34 10
-24 122 -22 164 4 47 28 67 73 59 129 -8 53 -8 62 0 117 4 29 1 53 -11 77 -27
58 -56 71 -170 75 -55 2 -103 1 -107 -4z"/>
<path d="M3357 574 c-4 -4 -7 -76 -7 -159 0 -141 2 -154 23 -185 63 -94 203
-97 271 -7 19 26 21 44 24 184 3 119 0 158 -9 164 -32 19 -39 -11 -39 -157 0
-143 0 -144 -27 -174 -50 -56 -130 -50 -177 13 -18 25 -22 46 -26 174 -5 136
-12 168 -33 147z"/>
<path d="M3432 568 c-15 -15 -17 -244 -2 -282 5 -14 19 -31 32 -39 27 -17 91
-31 84 -18 -5 8 17 23 37 25 12 1 8 309 -3 320 -21 21 -30 -15 -32 -143 -3
-115 -6 -135 -20 -145 -13 -8 -23 -8 -35 0 -15 9 -19 32 -23 149 -5 136 -12
159 -38 133z"/>
<path d="M1322 553 c3 -16 19 -18 147 -21 106 -2 146 1 152 10 4 7 5 16 3 20
-3 4 -73 8 -155 8 -138 0 -150 -1 -147 -17z"/>
<path d="M2334 557 c-2 -7 -3 -98 -2 -202 3 -182 4 -190 23 -190 19 0 20 8 23
203 2 198 2 202 -18 202 -11 0 -23 -6 -26 -13z"/>
<path d="M2410 490 c0 -72 2 -80 19 -80 19 0 111 122 111 148 0 24 -39 12 -65
-20 -21 -27 -26 -29 -24 -13 3 37 -1 45 -21 45 -18 0 -20 -7 -20 -80z"/>
<path d="M2520 470 c-46 -65 -68 -105 -63 -113 47 -76 138 -197 149 -197 33 0
23 33 -36 118 l-63 90 62 88 c65 93 73 114 41 114 -13 0 -42 -32 -90 -100z"/>
<path d="M3750 366 c0 -199 1 -206 20 -206 28 0 31 22 28 225 -3 178 -3 180
-25 183 l-23 3 0 -205z"/>
<path d="M3824 557 c-2 -7 -3 -98 -2 -202 3 -182 4 -190 23 -190 19 0 20 8 23
203 2 198 2 202 -18 202 -11 0 -23 -6 -26 -13z"/>
<path d="M3950 366 l0 -206 125 0 c105 0 127 3 132 16 3 8 1 20 -5 26 -8 8 -8
17 -1 30 20 37 4 48 -66 48 l-65 0 0 146 c0 145 0 145 -22 142 -23 -3 -23 -4
-23 -170 0 -221 -18 -220 -25 2 -5 162 -5 165 -27 168 l-23 3 0 -205z m200
-146 c10 -7 -12 -9 -70 -8 -76 1 -80 2 -35 8 76 10 89 10 105 0z"/>
<path d="M4272 368 c3 -195 4 -203 23 -203 19 0 20 8 23 184 l2 184 69 -5
c120 -9 172 -59 172 -163 0 -45 -5 -63 -26 -91 -34 -45 -77 -66 -123 -61 l-37
4 39 1 c24 1 44 9 52 20 7 9 17 17 23 17 6 0 10 2 9 5 -2 3 5 16 15 30 11 16
17 44 17 80 0 47 -5 61 -29 90 -27 33 -32 35 -92 35 l-64 0 -3 -80 c-3 -84 10
-128 37 -123 13 3 15 18 12 86 -1 45 0 82 3 82 4 0 22 -7 41 -15 60 -24 72
-89 26 -136 -23 -22 -39 -29 -70 -29 -47 0 -58 -13 -38 -44 14 -21 14 -25 0
-39 -24 -24 -7 -37 48 -37 124 0 209 84 209 206 0 79 -30 138 -88 175 -43 27
-53 29 -149 29 l-103 0 2 -202z"/>
<path d="M4680 365 l0 -205 116 0 c114 0 115 0 112 23 -3 19 -10 23 -58 27
l-55 5 38 8 c20 4 42 5 48 1 13 -8 29 13 29 39 0 14 -9 17 -55 17 -32 0 -55 4
-55 11 0 5 4 8 9 4 5 -3 12 -1 16 5 3 5 17 10 31 10 17 0 24 5 24 20 0 17 -7
20 -52 20 -38 0 -49 3 -38 10 8 5 11 10 5 11 -5 1 10 5 35 8 36 5 45 10 45 26
0 16 -8 21 -37 23 -21 2 -38 7 -38 11 0 4 14 5 31 3 22 -3 30 -1 25 7 -5 7 3
11 23 11 25 0 31 4 31 20 0 19 -5 21 -77 18 l-78 -3 0 -58 c0 -48 -2 -55 -12
-40 -11 14 -13 10 -13 -28 1 -35 3 -40 11 -26 5 9 15 17 21 17 7 0 6 -5 -2
-15 -7 -8 -11 -35 -8 -65 3 -55 -2 -62 -21 -27 -8 15 -11 64 -9 147 l3 125 93
3 c84 2 92 4 92 22 0 19 -7 20 -115 20 l-115 0 0 -205z m73 -152 c-7 -2 -19
-2 -25 0 -7 3 -2 5 12 5 14 0 19 -2 13 -5z"/>
<path d="M4982 368 c3 -195 4 -203 23 -203 19 0 20 8 23 183 l2 182 65 0 c82
0 111 -12 131 -53 15 -31 15 -37 0 -69 -16 -34 -50 -58 -81 -58 -8 0 -15 -8
-15 -17 1 -25 107 -173 125 -173 30 0 26 24 -14 82 -22 33 -41 65 -41 71 0 7
4 6 10 -3 8 -13 10 -13 10 2 0 9 6 21 13 25 45 28 61 116 32 173 -25 48 -61
60 -180 60 l-105 0 2 -202z"/>
<path d="M4768 513 c7 -3 16 -2 19 1 4 3 -2 6 -13 5 -11 0 -14 -3 -6 -6z"/>
<path d="M2123 495 c-94 -40 -97 -202 -6 -248 30 -15 122 -33 110 -21 -4 4 3
12 15 18 13 6 24 20 26 29 3 16 -2 18 -55 12 -54 -7 -62 -5 -88 18 -66 56 -20
166 64 154 20 -3 45 -7 56 -9 12 -2 21 3 23 15 2 12 -7 22 -32 32 -43 18 -71
18 -113 0z"/>
<path d="M5064 493 c-18 -18 -9 -33 19 -33 22 -1 22 -1 2 -16 -19 -16 -19 -16
8 -12 22 4 25 3 16 -8 -28 -34 25 -59 72 -34 22 12 27 84 7 97 -27 16 -109 20
-124 6z m96 -54 c0 -5 -7 -9 -15 -9 -9 0 -12 6 -9 15 6 15 24 11 24 -6z"/>
<path d="M1115 480 c-28 -31 -10 -69 47 -100 65 -35 88 -59 88 -89 0 -63 -65
-100 -141 -81 -67 17 -83 17 -87 -2 -5 -25 58 -48 128 -48 76 0 119 28 137 90
22 76 -5 124 -96 170 -53 27 -44 49 13 30 38 -12 56 -7 56 16 0 36 -115 47
-145 14z"/>
<path d="M1327 494 c-20 -20 -5 -34 38 -34 l44 0 3 -147 c3 -140 4 -148 23
-148 19 0 20 7 20 165 l0 165 -60 3 c-34 2 -64 0 -68 -4z"/>
<path d="M1490 329 c0 -157 1 -170 18 -167 15 3 18 20 22 148 l5 145 45 5 c25
3 44 8 43 13 -2 4 -3 12 -3 17 0 6 -28 10 -65 10 l-65 0 0 -171z"/>
<path d="M2757 488 c-18 -14 -41 -68 -32 -76 3 -3 5 1 5 9 1 10 4 8 11 -4 6
-10 30 -27 54 -37 60 -26 85 -53 85 -93 0 -69 -67 -99 -156 -71 -46 14 -57 15
-64 4 -5 -8 -6 -18 -3 -23 11 -18 74 -37 123 -37 86 0 136 38 146 111 8 65
-19 107 -91 142 -39 20 -54 32 -47 39 7 7 21 6 46 -2 38 -12 56 -7 56 16 0 30
-100 46 -133 22z"/>
<path d="M3067 493 c-19 -19 -4 -32 40 -35 49 -3 71 -24 31 -30 -15 -2 -24
-11 -26 -25 -3 -20 1 -23 31 -23 59 0 90 66 49 103 -19 17 -111 24 -125 10z"/>
<path d="M1762 351 c3 -23 0 -31 -15 -35 -35 -9 -16 -41 27 -44 54 -5 62 7 41
62 -13 33 -23 46 -37 46 -17 0 -19 -5 -16 -29z"/>
<path d="M5104 353 c-4 -10 -6 -22 -5 -26 1 -5 -3 -6 -9 -2 -6 4 -17 1 -25 -5
-17 -14 -21 -125 -6 -149 14 -22 41 -5 41 26 l0 28 26 -32 c14 -18 32 -33 39
-33 30 0 26 24 -12 79 -32 45 -39 63 -36 88 3 18 12 34 22 36 11 3 10 5 -5 6
-12 0 -25 -7 -30 -16z"/>
<path d="M2680 335 c0 -8 7 -15 16 -15 14 0 14 3 4 15 -7 8 -14 15 -16 15 -2
0 -4 -7 -4 -15z"/>
<path d="M3065 340 c-12 -19 6 -30 51 -30 32 0 44 -4 44 -15 0 -10 -10 -15
-26 -15 -23 0 -26 -4 -22 -25 3 -13 0 -26 -6 -29 -6 -2 9 -5 33 -5 24 -1 41 2
38 6 -4 3 2 12 13 20 22 15 26 53 10 84 -9 15 -22 19 -70 19 -32 0 -62 -4 -65
-10z"/>
<path d="M2417 323 c-4 -3 -7 -42 -7 -85 0 -71 2 -78 19 -78 16 0 20 8 23 38
l3 37 23 -37 c24 -39 48 -49 58 -24 6 14 -38 88 -79 134 -22 23 -29 26 -40 15z"/>
<path d="M4435 310 c-3 -5 -2 -10 4 -10 5 0 13 5 16 10 3 6 2 10 -4 10 -5 0
-13 -4 -16 -10z"/>
<path d="M1692 211 c-8 -24 -7 -32 5 -43 13 -11 18 -9 31 10 20 31 77 30 102
0 26 -31 49 -11 34 29 -9 27 -13 28 -86 31 l-76 3 -10 -30z"/>
<path d="M600 60 c-23 -7 -23 -8 -3 -9 12 -1 25 4 28 9 3 6 5 10 3 9 -2 -1
-14 -5 -28 -9z"/>
</g>
</svg>
