<?xml version="1.0" standalone="no"?>
<!DOCTYPE svg PUBLIC "-//W3C//DTD SVG 20010904//EN"
 "http://www.w3.org/TR/2001/REC-SVG-20010904/DTD/svg10.dtd">
<svg version="1.0" xmlns="http://www.w3.org/2000/svg"
 width="76.000000pt" height="77.000000pt" viewBox="0 0 76.000000 77.000000"
 preserveAspectRatio="xMidYMid meet">
<metadata>
Created by potrace 1.16, written by Peter Selinger 2001-2019
</metadata>
<g transform="translate(0.000000,77.000000) scale(0.100000,-0.100000)"
fill="#000000" stroke="none">
<path d="M153 712 c-40 -2 -73 -6 -73 -10 0 -4 37 -44 83 -90 l82 -82 138 0
137 0 0 -124 c0 -69 4 -127 9 -131 6 -3 8 4 6 15 -2 11 0 20 4 20 4 0 14 18
21 40 7 22 16 40 20 40 3 0 15 24 25 53 10 28 33 81 51 116 30 61 33 63 37 35
2 -16 5 1 6 39 1 48 -3 67 -11 67 -10 0 -10 2 -2 8 12 7 -386 10 -533 4z"/>
<path d="M60 381 l0 -311 238 2 c130 1 213 3 185 5 -29 2 -53 8 -53 14 0 5 4
9 9 9 5 0 11 8 15 17 3 10 10 25 15 33 5 8 14 27 22 43 7 15 18 27 24 27 13 0
141 -131 138 -141 -1 -3 5 -6 13 -6 8 0 14 4 14 9 0 4 -5 8 -12 8 -6 0 -9 2
-6 5 3 3 -27 38 -66 78 l-72 72 68 -65 c38 -36 71 -64 73 -62 11 5 26 1 21 -6
-2 -4 -1 -14 3 -21 5 -7 8 25 8 71 0 61 -1 68 -4 26 -2 -32 -9 -58 -14 -58 -6
0 -7 5 -3 12 4 7 3 8 -5 4 -7 -5 -35 15 -71 50 l-59 57 -150 -2 -151 -2 0 138
0 139 -72 70 c-121 117 -108 142 -108 -215z"/>
<path d="M610 80 c-23 -7 -23 -8 -3 -9 12 -1 25 4 28 9 3 6 5 10 3 9 -2 -1
-14 -5 -28 -9z"/>
</g>
</svg>
